# xmcd CD database file
#
# Track frame offsets:
#	150
#	41369
#	73307
#	85355
#	102774
#	144582
#	186389
#	204968
#	233423
#	268261
#	290282
#	317047
#
# Disc length: 4665 seconds
#
# Revision: 0
# Processed by: cddbd v1.4PL0 Copyright (c) Steve Scherf et al.
# Submitted via: CDex 1.51
#
DISCID=ad12370c
DTITLE=Rafa Navarro - Casambaclubbing [CD1)
DYEAR=2002
DGENRE=Rhythmic Soul
TTITLE0=Secrets of the planets
TTITLE1=Irdis Rises
TTITLE2=Manos Libres
TTITLE3=Moving Cities
TTITLE4=Say I love you
TTITLE5=The body theme
TTITLE6=Uno mas tiempo
TTITLE7=candela
TTITLE8=Peace sneakers
TTITLE9=Samba dub
TTITLE10=Same
TTITLE11=Rhumba del soul
EXTD=YEAR: 2002
EXTT0=
EXTT1=
EXTT2=
EXTT3=
EXTT4=
EXTT5=
EXTT6=
EXTT7=
EXTT8=
EXTT9=
EXTT10=
EXTT11=
PLAYORDER=
